<svg width="18" height="13" viewBox="0 0 18 13" fill="none" xmlns="http://www.w3.org/2000/svg">
<path d="M1.40437 0.705915C1.24195 0.482588 0.929241 0.433213 0.705915 0.595632C0.482588 0.758051 0.433213 1.07076 0.595632 1.29409L1.40437 0.705915ZM17.4044 1.29409C17.5668 1.07076 17.5174 0.758052 17.2941 0.595633C17.0708 0.433213 16.7581 0.482588 16.5956 0.705914L17.4044 1.29409ZM8.99999 12L8.59562 12.2941C8.68971 12.4235 8.84002 12.5 8.99999 12.5C9.15996 12.5 9.31027 12.4235 9.40436 12.2941L8.99999 12ZM16.5956 0.705914L8.59562 11.7059L9.40436 12.2941L17.4044 1.29409L16.5956 0.705914ZM9.40436 11.7059L1.40437 0.705915L0.595632 1.29409L8.59562 12.2941L9.40436 11.7059Z" fill="#272727"/>
</svg>
